<?xml version="1.0" encoding="UTF-8" standalone="no"?>
<!-- Created with Inkscape (http://www.inkscape.org/) -->

<svg
   width="121.83235mm"
   height="96.994385mm"
   viewBox="0 0 121.83235 96.994385"
   version="1.1"
   id="svg5"
   inkscape:version="1.2.2 (b0a84865, 2022-12-01)"
   sodipodi:docname="eulerian_graphs.svg"
   xmlns:inkscape="http://www.inkscape.org/namespaces/inkscape"
   xmlns:sodipodi="http://sodipodi.sourceforge.net/DTD/sodipodi-0.dtd"
   xmlns="http://www.w3.org/2000/svg"
   xmlns:svg="http://www.w3.org/2000/svg">
  <sodipodi:namedview
     id="namedview7"
     pagecolor="#ffffff"
     bordercolor="#cccccc"
     borderopacity="1"
     inkscape:showpageshadow="0"
     inkscape:pageopacity="1"
     inkscape:pagecheckerboard="0"
     inkscape:deskcolor="#d1d1d1"
     inkscape:document-units="mm"
     showgrid="false"
     inkscape:zoom="1"
     inkscape:cx="239"
     inkscape:cy="246.5"
     inkscape:window-width="1920"
     inkscape:window-height="1027"
     inkscape:window-x="0"
     inkscape:window-y="25"
     inkscape:window-maximized="1"
     inkscape:current-layer="svg5" />
  <defs
     id="defs2" />
  <path
     style="fill:none;stroke:#ff0e00;stroke-width:0.565;stroke-linecap:butt;stroke-linejoin:miter;stroke-dasharray:none;stroke-opacity:1"
     d="m 18.622811,85.349985 c -12.435417,-18.52083 -6.35,-33.60208 7.672916,-40.74583 14.022917,-7.14375 26.19375,0.79375 34.395831,10.31875 8.20208,9.525 32.03612,10.73701 44.979172,-0.26458 10.58333,-8.99583 12.7,-27.25209 1.32291,-42.333335 C 96.260778,-1.902282 81.329058,-1.962509 68.893648,4.122906 52.480083,12.155075 41.50309,25.534905 57.251976,50.954155 c 2.527322,4.07918 4.579882,7.00751 6.183452,10.41256 7.96541,16.91389 3.79389,26.00538 -7.241784,32.18536 -6.614584,3.70416 -24.60625,7.143745 -37.570833,-8.20209 z"
     id="path2573"
     sodipodi:nodetypes="cssssssssc"
     inkscape:export-filename="eulerian_graphs.png"
     inkscape:export-xdpi="96"
     inkscape:export-ydpi="96" />
  <path
     style="fill:none;stroke:#0003ff;stroke-width:0.565;stroke-linecap:butt;stroke-linejoin:miter;stroke-dasharray:none;stroke-opacity:1"
     d="m 59.633228,9.414574 c 19.57917,-10.847917 34.13125,-11.377083 43.127082,-1.5875 8.99583,9.789583 20.37292,32.014581 2.38125,47.095831 -17.991662,15.08125 -43.127082,5.29167 -47.889583,-3.43958 -4.7625,-8.73125 -15.08125,-28.045835 2.381251,-42.068751 z"
     id="path2575" />
  <circle
     style="fill:#000000;fill-opacity:1;fill-rule:evenodd;stroke:none;stroke-width:0.564999;stroke-linecap:round;stroke-linejoin:round;stroke-miterlimit:4.3;stroke-dasharray:none;stroke-opacity:1;paint-order:stroke markers fill"
     id="path2631"
     cx="57.648853"
     cy="52.144775"
     r="2.2489583" />
  <text
     xml:space="preserve"
     style="font-size:5.64444px;line-height:1.25;font-family:sans-serif;stroke-width:0.264583"
     x="58.045727"
     y="48.572906"
     id="text2687"><tspan
       sodipodi:role="line"
       id="tspan2685"
       style="stroke-width:0.264583"
       x="58.045727"
       y="48.572906">x</tspan></text>
  <text
     xml:space="preserve"
     style="font-size:5.64444px;line-height:1.25;font-family:sans-serif;stroke-width:0.264583"
     x="110.69781"
     y="15.235413"
     id="text2691"><tspan
       sodipodi:role="line"
       id="tspan2689"
       style="stroke-width:0.264583"
       x="110.69781"
       y="15.235413">D</tspan></text>
  <text
     xml:space="preserve"
     style="font-size:5.64444px;line-height:1.25;font-family:sans-serif;stroke-width:0.264583"
     x="4.5998917"
     y="64.712494"
     id="text2695"><tspan
       sodipodi:role="line"
       id="tspan2693"
       style="stroke-width:0.264583"
       x="4.5998917"
       y="64.712494">C</tspan></text>
  <g
     inkscape:groupmode="layer"
     id="layer1"
     inkscape:label="Layer 1" />
</svg>
